<svg id='Maple_Leaf_24' width='24' height='24' viewBox='0 0 24 24' xmlns='http://www.w3.org/2000/svg' xmlns:xlink='http://www.w3.org/1999/xlink'><rect width='24' height='24' stroke='none' fill='#000000' opacity='0'/>


<g transform="matrix(0.42 0 0 0.42 12 12)" >
<g style="" >
<g transform="matrix(1 0 0 1 0 -1.5)" >
<path style="stroke: none; stroke-width: 1; stroke-dasharray: none; stroke-linecap: butt; stroke-dashoffset: 0; stroke-linejoin: miter; stroke-miterlimit: 4; fill: rgb(139,195,74); fill-rule: nonzero; opacity: 1;" transform=" translate(-24, -22.5)" d="M 29.76 37.057 C 29.894000000000002 37.013000000000005 29.989 37.010000000000005 30.002000000000002 37.009 C 30.005000000000003 37.009 30.008000000000003 37.007 30.01 37.007 C 30.01 37.009 30.011000000000003 37.009 30.115000000000002 37.009 L 41.047000000000004 36.025 C 41.047000000000004 36.025 39.012 34.543 38.263000000000005 33.711999999999996 C 38.25900000000001 33.709999999999994 38.25600000000001 33.705999999999996 38.252 33.702 C 38.248000000000005 33.696 38.241 33.692 38.237 33.687 L 38.238 33.681 C 38.071 33.5 37.967 33.262 37.971 32.997 C 37.974 32.655 38.157 32.371 38.419999999999995 32.193 L 38.422 32.169 L 43 27.999 L 38.022999999999996 26.999 C 37.468999999999994 26.994 37.026999999999994 26.541999999999998 37.032999999999994 25.988999999999997 C 37.032999999999994 25.789999999999996 38.044999999999995 22.998999999999995 38.044999999999995 22.998999999999995 L 33.05 23.998999999999995 C 32.498 23.992999999999995 32.053 23.498999999999995 32.059999999999995 22.945999999999994 C 32.06099999999999 22.732999999999993 32.144 22.547999999999995 32.257999999999996 22.385999999999996 L 32.248999999999995 22.366999999999997 L 40 12.018 C 40 12.018 37 12.001000000000001 35.99 12 C 35.048 11.999 35 11 35 11 L 35 4 L 29.295 8.84 C 29.295 8.84 28.597 9.317 27.955000000000002 8.627 C 27.315 7.936000000000001 24.955000000000002 5.000000000000001 24.955000000000002 5.000000000000001 L 20.921000000000003 17.810000000000002 L 20.902000000000005 17.813000000000002 C 20.844000000000005 18.002000000000002 20.750000000000004 18.183000000000003 20.582000000000004 18.314000000000004 C 20.149000000000004 18.659000000000002 19.521000000000004 18.585000000000004 19.177000000000003 18.152000000000005 L 17 13 C 17 13 15.221 16.683 15.062 16.806 C 14.629 17.150000000000002 13.905999999999999 16.952 13.658 16.644000000000002 L 10 13 L 9.119 18.926000000000002 L 9.100999999999999 18.942 C 9.122 19.258 9.011 19.579 8.742999999999999 19.792 C 8.535999999999998 19.958000000000002 8.284999999999998 20.021 8.040999999999999 19.999000000000002 L 8.035999999999998 20.005000000000003 C 8.029 20.004 8.022 20 8.016 20 C 8.011 20 5 20 5 20 L 10.799 28.597 C 10.799999999999999 28.598000000000003 10.801 28.598000000000003 10.802 28.598000000000003 C 10.804 28.6 10.802999999999999 28.604000000000003 10.805 28.606 C 10.812 28.616000000000003 10.869 28.692 10.918 28.826 C 11.094999999999999 29.232 11.003 29.716 10.639999999999999 30.005 C 9.855 30.625 8 32 8 32 L 19 35 L 29 41 C 29 41 28.991 39 29 37.999 C 29.004 37.536 29.331 37.165 29.76 37.057 z" stroke-linecap="round" />
</g>
<g transform="matrix(1 0 0 1 -4.5 4)" >
<path style="stroke: none; stroke-width: 1; stroke-dasharray: none; stroke-linecap: butt; stroke-dashoffset: 0; stroke-linejoin: miter; stroke-miterlimit: 4; fill: rgb(104,159,56); fill-rule: nonzero; opacity: 1;" transform=" translate(-19.5, -28)" d="M 8.744 41.198 C 11.176 39.632 23 34 31 12 C 25 35 13.053999999999998 41.669 10.416 43.69 C 9.757 44.193999999999996 8.814 44.068999999999996 8.31 43.410999999999994 C 7.806000000000001 42.75299999999999 7.930000000000001 41.809 8.589 41.30499999999999 C 8.620000000000001 41.28099999999999 8.652000000000001 41.257999999999996 8.686 41.236999999999995 L 8.744 41.198 z" stroke-linecap="round" />
</g>
<g transform="matrix(1 0 0 1 0 2.35)" >
<path style="stroke: none; stroke-width: 1; stroke-dasharray: none; stroke-linecap: butt; stroke-dashoffset: 0; stroke-linejoin: miter; stroke-miterlimit: 4; fill: rgb(104,159,56); fill-rule: nonzero; opacity: 1;" transform=" translate(-24, -26.35)" d="M 14 21 C 15.018 22.525 16.165 23.846 17.44 25.029 C 18.073 25.623 18.744 26.173 19.419 26.709 C 20.098 27.223 20.831 27.742 21.509 28.151 L 21.443 28.115 L 22.949 28.858999999999998 L 23.323 29.049 L 23.473 29.124 L 23.625 29.189 C 23.844 29.276 24.082 29.364 24.323 29.439 C 25.298000000000002 29.735 26.34 29.947 27.4 30.043 C 28.462 30.162 29.546 30.192 30.645 30.172 C 31.748 30.165 32.856 30.067 34 30 C 31.974 31.056 29.688 31.637 27.337 31.706 C 26.162 31.713 24.969 31.631 23.787 31.316 C 23.491 31.237 23.195999999999998 31.151 22.894 31.032999999999998 L 22.659 30.935 L 22.432 30.828 L 22.055 30.642 L 20.557 29.884 L 20.509999999999998 29.861 L 20.49 29.848 C 19.644 29.299999999999997 18.945 28.724 18.253 28.076 C 17.562 27.443 16.931 26.746000000000002 16.36 26.003 C 15.786 25.265 15.288 24.465 14.879 23.627 C 14.472 22.793 14.161 21.9 14 21 z" stroke-linecap="round" />
</g>
</g>
</g>
</svg>